<mxfile host="app.diagrams.net" agent="Mozilla/5.0 (Windows NT 10.0; Win64; x64) AppleWebKit/537.36 (KHTML, like Gecko) Chrome/135.0.0.0 Safari/537.36" version="26.2.14">
  <diagram id="C5RBs43oDa-KdzZeNtuy" name="Page-1">
    <mxGraphModel dx="4583" dy="2933" grid="1" gridSize="10" guides="1" tooltips="1" connect="1" arrows="1" fold="1" page="1" pageScale="1" pageWidth="827" pageHeight="1169" math="0" shadow="0">
      <root>
        <mxCell id="WIyWlLk6GJQsqaUBKTNV-0" />
        <mxCell id="WIyWlLk6GJQsqaUBKTNV-1" parent="WIyWlLk6GJQsqaUBKTNV-0" />
        <mxCell id="WIyWlLk6GJQsqaUBKTNV-11" value="Usuario" style="rounded=1;whiteSpace=wrap;html=1;fontSize=12;glass=0;strokeWidth=1;shadow=0;" parent="WIyWlLk6GJQsqaUBKTNV-1" vertex="1">
          <mxGeometry x="-170" y="240" width="120" height="40" as="geometry" />
        </mxCell>
        <mxCell id="WIyWlLk6GJQsqaUBKTNV-12" value="Máquina" style="rounded=1;whiteSpace=wrap;html=1;fontSize=12;glass=0;strokeWidth=1;shadow=0;" parent="WIyWlLk6GJQsqaUBKTNV-1" vertex="1">
          <mxGeometry x="270" y="240" width="120" height="40" as="geometry" />
        </mxCell>
        <mxCell id="FrTbWwykCVP7QRdR1TdX-0" value="" style="endArrow=classic;html=1;rounded=0;exitX=1;exitY=0.5;exitDx=0;exitDy=0;entryX=0;entryY=0.5;entryDx=0;entryDy=0;" edge="1" parent="WIyWlLk6GJQsqaUBKTNV-1" source="WIyWlLk6GJQsqaUBKTNV-11" target="FrTbWwykCVP7QRdR1TdX-1">
          <mxGeometry width="50" height="50" relative="1" as="geometry">
            <mxPoint x="20" y="330" as="sourcePoint" />
            <mxPoint x="80" y="260" as="targetPoint" />
          </mxGeometry>
        </mxCell>
        <mxCell id="FrTbWwykCVP7QRdR1TdX-1" value="Utiliza el servicio en&amp;nbsp;" style="rhombus;whiteSpace=wrap;html=1;" vertex="1" parent="WIyWlLk6GJQsqaUBKTNV-1">
          <mxGeometry x="80" y="220" width="80" height="80" as="geometry" />
        </mxCell>
        <mxCell id="FrTbWwykCVP7QRdR1TdX-2" value="" style="endArrow=classic;html=1;rounded=0;entryX=0;entryY=0.5;entryDx=0;entryDy=0;exitX=1;exitY=0.5;exitDx=0;exitDy=0;" edge="1" parent="WIyWlLk6GJQsqaUBKTNV-1" source="FrTbWwykCVP7QRdR1TdX-1" target="WIyWlLk6GJQsqaUBKTNV-12">
          <mxGeometry width="50" height="50" relative="1" as="geometry">
            <mxPoint x="170" y="390" as="sourcePoint" />
            <mxPoint x="220" y="340" as="targetPoint" />
          </mxGeometry>
        </mxCell>
        <mxCell id="FrTbWwykCVP7QRdR1TdX-3" value="" style="endArrow=classic;html=1;rounded=0;exitX=1;exitY=0.5;exitDx=0;exitDy=0;" edge="1" parent="WIyWlLk6GJQsqaUBKTNV-1" source="WIyWlLk6GJQsqaUBKTNV-12" target="FrTbWwykCVP7QRdR1TdX-4">
          <mxGeometry width="50" height="50" relative="1" as="geometry">
            <mxPoint x="480" y="310" as="sourcePoint" />
            <mxPoint x="530" y="260" as="targetPoint" />
          </mxGeometry>
        </mxCell>
        <mxCell id="FrTbWwykCVP7QRdR1TdX-4" value="Tiene un problema" style="rhombus;whiteSpace=wrap;html=1;" vertex="1" parent="WIyWlLk6GJQsqaUBKTNV-1">
          <mxGeometry x="490" y="220" width="80" height="80" as="geometry" />
        </mxCell>
        <mxCell id="FrTbWwykCVP7QRdR1TdX-5" value="" style="endArrow=classic;html=1;rounded=0;exitX=1;exitY=0.5;exitDx=0;exitDy=0;entryX=0;entryY=0.5;entryDx=0;entryDy=0;" edge="1" parent="WIyWlLk6GJQsqaUBKTNV-1" source="FrTbWwykCVP7QRdR1TdX-4" target="FrTbWwykCVP7QRdR1TdX-6">
          <mxGeometry width="50" height="50" relative="1" as="geometry">
            <mxPoint x="690" y="320" as="sourcePoint" />
            <mxPoint x="660" y="260" as="targetPoint" />
          </mxGeometry>
        </mxCell>
        <mxCell id="FrTbWwykCVP7QRdR1TdX-6" value="Usuario&amp;nbsp;&lt;br&gt;genera" style="rhombus;whiteSpace=wrap;html=1;" vertex="1" parent="WIyWlLk6GJQsqaUBKTNV-1">
          <mxGeometry x="630" y="220" width="80" height="80" as="geometry" />
        </mxCell>
        <mxCell id="FrTbWwykCVP7QRdR1TdX-7" value="Form de reclamos" style="rounded=1;whiteSpace=wrap;html=1;" vertex="1" parent="WIyWlLk6GJQsqaUBKTNV-1">
          <mxGeometry x="810" y="230" width="120" height="60" as="geometry" />
        </mxCell>
        <mxCell id="FrTbWwykCVP7QRdR1TdX-8" value="" style="endArrow=classic;html=1;rounded=0;entryX=0;entryY=0.5;entryDx=0;entryDy=0;exitX=1;exitY=0.5;exitDx=0;exitDy=0;" edge="1" parent="WIyWlLk6GJQsqaUBKTNV-1" source="FrTbWwykCVP7QRdR1TdX-6" target="FrTbWwykCVP7QRdR1TdX-7">
          <mxGeometry width="50" height="50" relative="1" as="geometry">
            <mxPoint x="680" y="400" as="sourcePoint" />
            <mxPoint x="730" y="350" as="targetPoint" />
          </mxGeometry>
        </mxCell>
        <mxCell id="FrTbWwykCVP7QRdR1TdX-11" value="" style="triangle;whiteSpace=wrap;html=1;rotation=-180;" vertex="1" parent="WIyWlLk6GJQsqaUBKTNV-1">
          <mxGeometry x="1480" y="-230" width="60" height="80" as="geometry" />
        </mxCell>
        <mxCell id="FrTbWwykCVP7QRdR1TdX-12" value="" style="endArrow=classic;html=1;rounded=0;exitX=1;exitY=0.5;exitDx=0;exitDy=0;entryX=1;entryY=0.5;entryDx=0;entryDy=0;" edge="1" parent="WIyWlLk6GJQsqaUBKTNV-1" source="FrTbWwykCVP7QRdR1TdX-7" target="FrTbWwykCVP7QRdR1TdX-43">
          <mxGeometry width="50" height="50" relative="1" as="geometry">
            <mxPoint x="880" y="390" as="sourcePoint" />
            <mxPoint x="1090" y="260" as="targetPoint" />
          </mxGeometry>
        </mxCell>
        <mxCell id="FrTbWwykCVP7QRdR1TdX-13" value="" style="endArrow=classic;html=1;rounded=0;exitX=-0.046;exitY=1.024;exitDx=0;exitDy=0;exitPerimeter=0;entryX=0;entryY=0.5;entryDx=0;entryDy=0;" edge="1" parent="WIyWlLk6GJQsqaUBKTNV-1" source="FrTbWwykCVP7QRdR1TdX-11" target="FrTbWwykCVP7QRdR1TdX-14">
          <mxGeometry width="50" height="50" relative="1" as="geometry">
            <mxPoint x="1570" y="-250" as="sourcePoint" />
            <mxPoint x="1740" y="-500" as="targetPoint" />
          </mxGeometry>
        </mxCell>
        <mxCell id="FrTbWwykCVP7QRdR1TdX-14" value="Pagó el servicio y no se activó" style="rounded=0;whiteSpace=wrap;html=1;" vertex="1" parent="WIyWlLk6GJQsqaUBKTNV-1">
          <mxGeometry x="1720" y="-940" width="120" height="60" as="geometry" />
        </mxCell>
        <mxCell id="FrTbWwykCVP7QRdR1TdX-15" value="Carga del monedero" style="rounded=0;whiteSpace=wrap;html=1;" vertex="1" parent="WIyWlLk6GJQsqaUBKTNV-1">
          <mxGeometry x="1300" y="430" width="120" height="60" as="geometry" />
        </mxCell>
        <mxCell id="FrTbWwykCVP7QRdR1TdX-16" value="Llama al servicio técnico" style="rounded=0;whiteSpace=wrap;html=1;" vertex="1" parent="WIyWlLk6GJQsqaUBKTNV-1">
          <mxGeometry x="1720" y="-430" width="120" height="60" as="geometry" />
        </mxCell>
        <mxCell id="FrTbWwykCVP7QRdR1TdX-17" value="Deficiencia en el lavado" style="rounded=0;whiteSpace=wrap;html=1;" vertex="1" parent="WIyWlLk6GJQsqaUBKTNV-1">
          <mxGeometry x="1720" y="-60" width="120" height="60" as="geometry" />
        </mxCell>
        <mxCell id="FrTbWwykCVP7QRdR1TdX-20" value="" style="endArrow=classic;html=1;rounded=0;exitX=0;exitY=0.25;exitDx=0;exitDy=0;entryX=0;entryY=0.5;entryDx=0;entryDy=0;" edge="1" parent="WIyWlLk6GJQsqaUBKTNV-1" source="FrTbWwykCVP7QRdR1TdX-11" target="FrTbWwykCVP7QRdR1TdX-17">
          <mxGeometry width="50" height="50" relative="1" as="geometry">
            <mxPoint x="1610" y="-90" as="sourcePoint" />
            <mxPoint x="1660" y="-140" as="targetPoint" />
          </mxGeometry>
        </mxCell>
        <mxCell id="FrTbWwykCVP7QRdR1TdX-21" value="" style="endArrow=classic;html=1;rounded=0;exitX=0;exitY=0.75;exitDx=0;exitDy=0;entryX=0;entryY=0.5;entryDx=0;entryDy=0;" edge="1" parent="WIyWlLk6GJQsqaUBKTNV-1" source="FrTbWwykCVP7QRdR1TdX-11" target="FrTbWwykCVP7QRdR1TdX-16">
          <mxGeometry width="50" height="50" relative="1" as="geometry">
            <mxPoint x="1560" y="-170" as="sourcePoint" />
            <mxPoint x="1610" y="-220" as="targetPoint" />
          </mxGeometry>
        </mxCell>
        <mxCell id="FrTbWwykCVP7QRdR1TdX-22" value="" style="endArrow=classic;html=1;rounded=0;exitX=0.008;exitY=0;exitDx=0;exitDy=0;entryX=0;entryY=0.5;entryDx=0;entryDy=0;exitPerimeter=0;" edge="1" parent="WIyWlLk6GJQsqaUBKTNV-1" source="FrTbWwykCVP7QRdR1TdX-43" target="FrTbWwykCVP7QRdR1TdX-15">
          <mxGeometry width="50" height="50" relative="1" as="geometry">
            <mxPoint x="1550" y="-150" as="sourcePoint" />
            <mxPoint x="1600" y="-200" as="targetPoint" />
          </mxGeometry>
        </mxCell>
        <mxCell id="FrTbWwykCVP7QRdR1TdX-24" value="EFL, Overflow,&amp;nbsp;&lt;div&gt;Out of Order&lt;/div&gt;" style="shape=hexagon;perimeter=hexagonPerimeter2;whiteSpace=wrap;html=1;fixedSize=1;" vertex="1" parent="WIyWlLk6GJQsqaUBKTNV-1">
          <mxGeometry x="2180" y="-1080" width="120" height="80" as="geometry" />
        </mxCell>
        <mxCell id="FrTbWwykCVP7QRdR1TdX-25" value="" style="endArrow=classic;html=1;rounded=0;exitX=1;exitY=0.5;exitDx=0;exitDy=0;" edge="1" parent="WIyWlLk6GJQsqaUBKTNV-1" source="FrTbWwykCVP7QRdR1TdX-14">
          <mxGeometry width="50" height="50" relative="1" as="geometry">
            <mxPoint x="1990" y="-860" as="sourcePoint" />
            <mxPoint x="1980" y="-910" as="targetPoint" />
          </mxGeometry>
        </mxCell>
        <mxCell id="FrTbWwykCVP7QRdR1TdX-26" value="" style="triangle;whiteSpace=wrap;html=1;rotation=-180;direction=east;" vertex="1" parent="WIyWlLk6GJQsqaUBKTNV-1">
          <mxGeometry x="1980" y="-950" width="60" height="80" as="geometry" />
        </mxCell>
        <mxCell id="FrTbWwykCVP7QRdR1TdX-27" value="" style="endArrow=classic;html=1;rounded=0;exitX=0.017;exitY=1.008;exitDx=0;exitDy=0;exitPerimeter=0;entryX=0;entryY=0.5;entryDx=0;entryDy=0;" edge="1" parent="WIyWlLk6GJQsqaUBKTNV-1" source="FrTbWwykCVP7QRdR1TdX-26" target="FrTbWwykCVP7QRdR1TdX-24">
          <mxGeometry width="50" height="50" relative="1" as="geometry">
            <mxPoint x="2140" y="-820" as="sourcePoint" />
            <mxPoint x="2190" y="-870" as="targetPoint" />
          </mxGeometry>
        </mxCell>
        <mxCell id="FrTbWwykCVP7QRdR1TdX-28" value="Aparece saldo deficiente" style="shape=hexagon;perimeter=hexagonPerimeter2;whiteSpace=wrap;html=1;fixedSize=1;" vertex="1" parent="WIyWlLk6GJQsqaUBKTNV-1">
          <mxGeometry x="2180" y="-970" width="120" height="80" as="geometry" />
        </mxCell>
        <mxCell id="FrTbWwykCVP7QRdR1TdX-29" value="" style="endArrow=classic;html=1;rounded=0;exitX=0;exitY=0.75;exitDx=0;exitDy=0;entryX=0;entryY=0.5;entryDx=0;entryDy=0;" edge="1" parent="WIyWlLk6GJQsqaUBKTNV-1" source="FrTbWwykCVP7QRdR1TdX-26" target="FrTbWwykCVP7QRdR1TdX-28">
          <mxGeometry width="50" height="50" relative="1" as="geometry">
            <mxPoint x="2120" y="-790" as="sourcePoint" />
            <mxPoint x="2170" y="-840" as="targetPoint" />
          </mxGeometry>
        </mxCell>
        <mxCell id="FrTbWwykCVP7QRdR1TdX-30" value="Nada&lt;br&gt;(Directamente no se activó)" style="shape=hexagon;perimeter=hexagonPerimeter2;whiteSpace=wrap;html=1;fixedSize=1;" vertex="1" parent="WIyWlLk6GJQsqaUBKTNV-1">
          <mxGeometry x="2180" y="-770" width="120" height="80" as="geometry" />
        </mxCell>
        <mxCell id="FrTbWwykCVP7QRdR1TdX-31" value="" style="endArrow=classic;html=1;rounded=0;entryX=0;entryY=0.5;entryDx=0;entryDy=0;exitX=0.009;exitY=-0.021;exitDx=0;exitDy=0;exitPerimeter=0;" edge="1" parent="WIyWlLk6GJQsqaUBKTNV-1" source="FrTbWwykCVP7QRdR1TdX-26" target="FrTbWwykCVP7QRdR1TdX-30">
          <mxGeometry width="50" height="50" relative="1" as="geometry">
            <mxPoint x="2160" y="-670" as="sourcePoint" />
            <mxPoint x="2210" y="-720" as="targetPoint" />
          </mxGeometry>
        </mxCell>
        <mxCell id="FrTbWwykCVP7QRdR1TdX-32" value="(DL1) Puerta mal cerrada" style="shape=hexagon;perimeter=hexagonPerimeter2;whiteSpace=wrap;html=1;fixedSize=1;" vertex="1" parent="WIyWlLk6GJQsqaUBKTNV-1">
          <mxGeometry x="2180" y="-870" width="120" height="80" as="geometry" />
        </mxCell>
        <mxCell id="FrTbWwykCVP7QRdR1TdX-33" value="" style="endArrow=classic;html=1;rounded=0;exitX=0.009;exitY=0.327;exitDx=0;exitDy=0;exitPerimeter=0;entryX=0;entryY=0.5;entryDx=0;entryDy=0;" edge="1" parent="WIyWlLk6GJQsqaUBKTNV-1" source="FrTbWwykCVP7QRdR1TdX-26" target="FrTbWwykCVP7QRdR1TdX-32">
          <mxGeometry width="50" height="50" relative="1" as="geometry">
            <mxPoint x="2470" y="-790" as="sourcePoint" />
            <mxPoint x="2520" y="-840" as="targetPoint" />
          </mxGeometry>
        </mxCell>
        <mxCell id="FrTbWwykCVP7QRdR1TdX-34" value="¿Qué aparece en el panel del equipo?" style="text;html=1;align=center;verticalAlign=middle;resizable=0;points=[];autosize=1;strokeColor=none;fillColor=none;" vertex="1" parent="WIyWlLk6GJQsqaUBKTNV-1">
          <mxGeometry x="1824" y="-780" width="230" height="30" as="geometry" />
        </mxCell>
        <mxCell id="FrTbWwykCVP7QRdR1TdX-35" value="" style="endArrow=none;html=1;rounded=0;entryX=0.5;entryY=0;entryDx=0;entryDy=0;exitX=0.513;exitY=0.049;exitDx=0;exitDy=0;exitPerimeter=0;" edge="1" parent="WIyWlLk6GJQsqaUBKTNV-1" source="FrTbWwykCVP7QRdR1TdX-34" target="FrTbWwykCVP7QRdR1TdX-26">
          <mxGeometry width="50" height="50" relative="1" as="geometry">
            <mxPoint x="1920" y="-780" as="sourcePoint" />
            <mxPoint x="1970" y="-830" as="targetPoint" />
          </mxGeometry>
        </mxCell>
        <mxCell id="FrTbWwykCVP7QRdR1TdX-43" value="" style="triangle;whiteSpace=wrap;html=1;rotation=-180;" vertex="1" parent="WIyWlLk6GJQsqaUBKTNV-1">
          <mxGeometry x="1110" y="220" width="60" height="80" as="geometry" />
        </mxCell>
        <mxCell id="FrTbWwykCVP7QRdR1TdX-47" value="&lt;font style=&quot;font-size: 14px;&quot;&gt;Seleccione el área de su problema&lt;/font&gt;" style="text;html=1;align=center;verticalAlign=middle;resizable=0;points=[];autosize=1;strokeColor=none;fillColor=none;" vertex="1" parent="WIyWlLk6GJQsqaUBKTNV-1">
          <mxGeometry x="860" y="140" width="240" height="30" as="geometry" />
        </mxCell>
        <mxCell id="FrTbWwykCVP7QRdR1TdX-48" value="" style="endArrow=none;html=1;rounded=0;entryX=0.5;entryY=1;entryDx=0;entryDy=0;" edge="1" parent="WIyWlLk6GJQsqaUBKTNV-1" source="FrTbWwykCVP7QRdR1TdX-47" target="FrTbWwykCVP7QRdR1TdX-43">
          <mxGeometry width="50" height="50" relative="1" as="geometry">
            <mxPoint x="1140" y="390" as="sourcePoint" />
            <mxPoint x="1190" y="340" as="targetPoint" />
          </mxGeometry>
        </mxCell>
        <mxCell id="FrTbWwykCVP7QRdR1TdX-54" value="Recargo el monedero y no se acreditó" style="shape=hexagon;perimeter=hexagonPerimeter2;whiteSpace=wrap;html=1;fixedSize=1;" vertex="1" parent="WIyWlLk6GJQsqaUBKTNV-1">
          <mxGeometry x="1760" y="420" width="120" height="80" as="geometry" />
        </mxCell>
        <mxCell id="FrTbWwykCVP7QRdR1TdX-55" value="" style="endArrow=classic;html=1;rounded=0;entryX=0;entryY=0.5;entryDx=0;entryDy=0;exitX=1;exitY=0.5;exitDx=0;exitDy=0;" edge="1" parent="WIyWlLk6GJQsqaUBKTNV-1" source="FrTbWwykCVP7QRdR1TdX-15" target="FrTbWwykCVP7QRdR1TdX-54">
          <mxGeometry width="50" height="50" relative="1" as="geometry">
            <mxPoint x="1490" y="520" as="sourcePoint" />
            <mxPoint x="1620" y="680" as="targetPoint" />
          </mxGeometry>
        </mxCell>
        <mxCell id="FrTbWwykCVP7QRdR1TdX-57" value="Lavadora/Secadora" style="rounded=0;whiteSpace=wrap;html=1;" vertex="1" parent="WIyWlLk6GJQsqaUBKTNV-1">
          <mxGeometry x="1300" y="20" width="120" height="60" as="geometry" />
        </mxCell>
        <mxCell id="FrTbWwykCVP7QRdR1TdX-58" value="" style="endArrow=classic;html=1;rounded=0;exitX=-0.016;exitY=0.982;exitDx=0;exitDy=0;exitPerimeter=0;entryX=0;entryY=0.5;entryDx=0;entryDy=0;" edge="1" parent="WIyWlLk6GJQsqaUBKTNV-1" source="FrTbWwykCVP7QRdR1TdX-43" target="FrTbWwykCVP7QRdR1TdX-57">
          <mxGeometry width="50" height="50" relative="1" as="geometry">
            <mxPoint x="1870" y="-60" as="sourcePoint" />
            <mxPoint x="1920" y="-110" as="targetPoint" />
          </mxGeometry>
        </mxCell>
        <mxCell id="FrTbWwykCVP7QRdR1TdX-59" value="" style="endArrow=classic;html=1;rounded=0;exitX=1;exitY=0.5;exitDx=0;exitDy=0;entryX=1;entryY=0.5;entryDx=0;entryDy=0;" edge="1" parent="WIyWlLk6GJQsqaUBKTNV-1" source="FrTbWwykCVP7QRdR1TdX-57" target="FrTbWwykCVP7QRdR1TdX-11">
          <mxGeometry width="50" height="50" relative="1" as="geometry">
            <mxPoint x="1870" y="-60" as="sourcePoint" />
            <mxPoint x="1920" y="-110" as="targetPoint" />
          </mxGeometry>
        </mxCell>
        <mxCell id="FrTbWwykCVP7QRdR1TdX-64" value="Solicitar dependiendo del tipo de pago" style="swimlane;fontStyle=0;childLayout=stackLayout;horizontal=1;startSize=30;horizontalStack=0;resizeParent=1;resizeParentMax=0;resizeLast=0;collapsible=1;marginBottom=0;whiteSpace=wrap;html=1;" vertex="1" parent="WIyWlLk6GJQsqaUBKTNV-1">
          <mxGeometry x="1750" y="-660" width="230" height="120" as="geometry" />
        </mxCell>
        <mxCell id="FrTbWwykCVP7QRdR1TdX-65" value="Monedero: Comprobante del monedero" style="text;strokeColor=none;fillColor=none;align=left;verticalAlign=middle;spacingLeft=4;spacingRight=4;overflow=hidden;points=[[0,0.5],[1,0.5]];portConstraint=eastwest;rotatable=0;whiteSpace=wrap;html=1;" vertex="1" parent="FrTbWwykCVP7QRdR1TdX-64">
          <mxGeometry y="30" width="230" height="30" as="geometry" />
        </mxCell>
        <mxCell id="FrTbWwykCVP7QRdR1TdX-66" value="Mi banco: Comprobante de pago" style="text;strokeColor=none;fillColor=none;align=left;verticalAlign=middle;spacingLeft=4;spacingRight=4;overflow=hidden;points=[[0,0.5],[1,0.5]];portConstraint=eastwest;rotatable=0;whiteSpace=wrap;html=1;" vertex="1" parent="FrTbWwykCVP7QRdR1TdX-64">
          <mxGeometry y="60" width="230" height="30" as="geometry" />
        </mxCell>
        <mxCell id="FrTbWwykCVP7QRdR1TdX-67" value="Transbank: Comprobante de pago y últimos 4 dígitos de la tarjeta." style="text;strokeColor=none;fillColor=none;align=left;verticalAlign=middle;spacingLeft=4;spacingRight=4;overflow=hidden;points=[[0,0.5],[1,0.5]];portConstraint=eastwest;rotatable=0;whiteSpace=wrap;html=1;" vertex="1" parent="FrTbWwykCVP7QRdR1TdX-64">
          <mxGeometry y="90" width="230" height="30" as="geometry" />
        </mxCell>
        <mxCell id="FrTbWwykCVP7QRdR1TdX-68" value="" style="endArrow=none;dashed=1;html=1;dashPattern=1 3;strokeWidth=2;rounded=0;entryX=0.5;entryY=1;entryDx=0;entryDy=0;exitX=0.5;exitY=0;exitDx=0;exitDy=0;" edge="1" parent="WIyWlLk6GJQsqaUBKTNV-1" source="FrTbWwykCVP7QRdR1TdX-64" target="FrTbWwykCVP7QRdR1TdX-14">
          <mxGeometry width="50" height="50" relative="1" as="geometry">
            <mxPoint x="1790" y="-670" as="sourcePoint" />
            <mxPoint x="1840" y="-720" as="targetPoint" />
          </mxGeometry>
        </mxCell>
        <mxCell id="FrTbWwykCVP7QRdR1TdX-69" value="Solicitar" style="swimlane;fontStyle=0;childLayout=stackLayout;horizontal=1;startSize=30;horizontalStack=0;resizeParent=1;resizeParentMax=0;resizeLast=0;collapsible=1;marginBottom=0;whiteSpace=wrap;html=1;" vertex="1" parent="WIyWlLk6GJQsqaUBKTNV-1">
          <mxGeometry x="1470" y="190" width="140" height="90" as="geometry" />
        </mxCell>
        <mxCell id="FrTbWwykCVP7QRdR1TdX-70" value="ID de máquina" style="text;strokeColor=none;fillColor=none;align=left;verticalAlign=middle;spacingLeft=4;spacingRight=4;overflow=hidden;points=[[0,0.5],[1,0.5]];portConstraint=eastwest;rotatable=0;whiteSpace=wrap;html=1;" vertex="1" parent="FrTbWwykCVP7QRdR1TdX-69">
          <mxGeometry y="30" width="140" height="30" as="geometry" />
        </mxCell>
        <mxCell id="FrTbWwykCVP7QRdR1TdX-71" value="Foto del equipo completo" style="text;strokeColor=none;fillColor=none;align=left;verticalAlign=middle;spacingLeft=4;spacingRight=4;overflow=hidden;points=[[0,0.5],[1,0.5]];portConstraint=eastwest;rotatable=0;whiteSpace=wrap;html=1;" vertex="1" parent="FrTbWwykCVP7QRdR1TdX-69">
          <mxGeometry y="60" width="140" height="30" as="geometry" />
        </mxCell>
        <mxCell id="FrTbWwykCVP7QRdR1TdX-73" value="" style="endArrow=none;dashed=1;html=1;dashPattern=1 3;strokeWidth=2;rounded=0;entryX=0.5;entryY=1;entryDx=0;entryDy=0;exitX=0.5;exitY=0;exitDx=0;exitDy=0;" edge="1" parent="WIyWlLk6GJQsqaUBKTNV-1" source="FrTbWwykCVP7QRdR1TdX-69" target="FrTbWwykCVP7QRdR1TdX-57">
          <mxGeometry width="50" height="50" relative="1" as="geometry">
            <mxPoint x="1340" y="230" as="sourcePoint" />
            <mxPoint x="1390" y="180" as="targetPoint" />
          </mxGeometry>
        </mxCell>
        <mxCell id="FrTbWwykCVP7QRdR1TdX-74" value="El formulario debe captar" style="swimlane;fontStyle=0;childLayout=stackLayout;horizontal=1;startSize=30;horizontalStack=0;resizeParent=1;resizeParentMax=0;resizeLast=0;collapsible=1;marginBottom=0;whiteSpace=wrap;html=1;" vertex="1" parent="WIyWlLk6GJQsqaUBKTNV-1">
          <mxGeometry x="900" y="490" width="140" height="120" as="geometry" />
        </mxCell>
        <mxCell id="FrTbWwykCVP7QRdR1TdX-75" value="correo de usuario" style="text;strokeColor=none;fillColor=none;align=left;verticalAlign=middle;spacingLeft=4;spacingRight=4;overflow=hidden;points=[[0,0.5],[1,0.5]];portConstraint=eastwest;rotatable=0;whiteSpace=wrap;html=1;" vertex="1" parent="FrTbWwykCVP7QRdR1TdX-74">
          <mxGeometry y="30" width="140" height="30" as="geometry" />
        </mxCell>
        <mxCell id="FrTbWwykCVP7QRdR1TdX-76" value="nombre de usuario" style="text;strokeColor=none;fillColor=none;align=left;verticalAlign=middle;spacingLeft=4;spacingRight=4;overflow=hidden;points=[[0,0.5],[1,0.5]];portConstraint=eastwest;rotatable=0;whiteSpace=wrap;html=1;" vertex="1" parent="FrTbWwykCVP7QRdR1TdX-74">
          <mxGeometry y="60" width="140" height="30" as="geometry" />
        </mxCell>
        <mxCell id="FrTbWwykCVP7QRdR1TdX-77" value="departamento y edificio de usuario" style="text;strokeColor=none;fillColor=none;align=left;verticalAlign=middle;spacingLeft=4;spacingRight=4;overflow=hidden;points=[[0,0.5],[1,0.5]];portConstraint=eastwest;rotatable=0;whiteSpace=wrap;html=1;" vertex="1" parent="FrTbWwykCVP7QRdR1TdX-74">
          <mxGeometry y="90" width="140" height="30" as="geometry" />
        </mxCell>
        <mxCell id="FrTbWwykCVP7QRdR1TdX-78" value="" style="endArrow=none;dashed=1;html=1;dashPattern=1 3;strokeWidth=2;rounded=0;entryX=0.5;entryY=1;entryDx=0;entryDy=0;exitX=0.5;exitY=0;exitDx=0;exitDy=0;" edge="1" parent="WIyWlLk6GJQsqaUBKTNV-1" source="FrTbWwykCVP7QRdR1TdX-74" target="FrTbWwykCVP7QRdR1TdX-7">
          <mxGeometry width="50" height="50" relative="1" as="geometry">
            <mxPoint x="940" y="450" as="sourcePoint" />
            <mxPoint x="990" y="400" as="targetPoint" />
          </mxGeometry>
        </mxCell>
        <mxCell id="FrTbWwykCVP7QRdR1TdX-79" value="Solicitar" style="swimlane;fontStyle=0;childLayout=stackLayout;horizontal=1;startSize=30;horizontalStack=0;resizeParent=1;resizeParentMax=0;resizeLast=0;collapsible=1;marginBottom=0;whiteSpace=wrap;html=1;" vertex="1" parent="WIyWlLk6GJQsqaUBKTNV-1">
          <mxGeometry x="1960" y="-480" width="140" height="60" as="geometry" />
        </mxCell>
        <mxCell id="FrTbWwykCVP7QRdR1TdX-80" value="breve explicación" style="text;strokeColor=none;fillColor=none;align=left;verticalAlign=middle;spacingLeft=4;spacingRight=4;overflow=hidden;points=[[0,0.5],[1,0.5]];portConstraint=eastwest;rotatable=0;whiteSpace=wrap;html=1;" vertex="1" parent="FrTbWwykCVP7QRdR1TdX-79">
          <mxGeometry y="30" width="140" height="30" as="geometry" />
        </mxCell>
        <mxCell id="FrTbWwykCVP7QRdR1TdX-83" value="" style="endArrow=none;dashed=1;html=1;dashPattern=1 3;strokeWidth=2;rounded=0;entryX=0.01;entryY=-0.027;entryDx=0;entryDy=0;entryPerimeter=0;exitX=1;exitY=0.5;exitDx=0;exitDy=0;" edge="1" parent="WIyWlLk6GJQsqaUBKTNV-1" source="FrTbWwykCVP7QRdR1TdX-16" target="FrTbWwykCVP7QRdR1TdX-80">
          <mxGeometry width="50" height="50" relative="1" as="geometry">
            <mxPoint x="1920" y="-190" as="sourcePoint" />
            <mxPoint x="1970" y="-240" as="targetPoint" />
          </mxGeometry>
        </mxCell>
        <mxCell id="FrTbWwykCVP7QRdR1TdX-84" value="Ropa mal lavada" style="shape=hexagon;perimeter=hexagonPerimeter2;whiteSpace=wrap;html=1;fixedSize=1;" vertex="1" parent="WIyWlLk6GJQsqaUBKTNV-1">
          <mxGeometry x="1990" y="-170" width="120" height="80" as="geometry" />
        </mxCell>
        <mxCell id="FrTbWwykCVP7QRdR1TdX-85" value="Ropa mal secada" style="shape=hexagon;perimeter=hexagonPerimeter2;whiteSpace=wrap;html=1;fixedSize=1;" vertex="1" parent="WIyWlLk6GJQsqaUBKTNV-1">
          <mxGeometry x="1990" y="-70" width="120" height="80" as="geometry" />
        </mxCell>
        <mxCell id="FrTbWwykCVP7QRdR1TdX-86" value="Ropa dañada" style="shape=hexagon;perimeter=hexagonPerimeter2;whiteSpace=wrap;html=1;fixedSize=1;" vertex="1" parent="WIyWlLk6GJQsqaUBKTNV-1">
          <mxGeometry x="1990" y="30" width="120" height="80" as="geometry" />
        </mxCell>
        <mxCell id="FrTbWwykCVP7QRdR1TdX-87" value="" style="endArrow=classic;html=1;rounded=0;entryX=0;entryY=0.5;entryDx=0;entryDy=0;exitX=1;exitY=0.25;exitDx=0;exitDy=0;" edge="1" parent="WIyWlLk6GJQsqaUBKTNV-1" source="FrTbWwykCVP7QRdR1TdX-17" target="FrTbWwykCVP7QRdR1TdX-84">
          <mxGeometry width="50" height="50" relative="1" as="geometry">
            <mxPoint x="2110" y="120" as="sourcePoint" />
            <mxPoint x="2160" y="70" as="targetPoint" />
          </mxGeometry>
        </mxCell>
        <mxCell id="FrTbWwykCVP7QRdR1TdX-88" value="" style="endArrow=classic;html=1;rounded=0;entryX=0;entryY=0.5;entryDx=0;entryDy=0;exitX=1;exitY=0.5;exitDx=0;exitDy=0;" edge="1" parent="WIyWlLk6GJQsqaUBKTNV-1" source="FrTbWwykCVP7QRdR1TdX-17" target="FrTbWwykCVP7QRdR1TdX-85">
          <mxGeometry width="50" height="50" relative="1" as="geometry">
            <mxPoint x="2110" y="120" as="sourcePoint" />
            <mxPoint x="2160" y="70" as="targetPoint" />
          </mxGeometry>
        </mxCell>
        <mxCell id="FrTbWwykCVP7QRdR1TdX-89" value="" style="endArrow=classic;html=1;rounded=0;entryX=0;entryY=0.5;entryDx=0;entryDy=0;exitX=1;exitY=0.75;exitDx=0;exitDy=0;" edge="1" parent="WIyWlLk6GJQsqaUBKTNV-1" source="FrTbWwykCVP7QRdR1TdX-17" target="FrTbWwykCVP7QRdR1TdX-86">
          <mxGeometry width="50" height="50" relative="1" as="geometry">
            <mxPoint x="2110" y="120" as="sourcePoint" />
            <mxPoint x="2160" y="70" as="targetPoint" />
          </mxGeometry>
        </mxCell>
        <mxCell id="FrTbWwykCVP7QRdR1TdX-98" value="Solicitar" style="swimlane;fontStyle=0;childLayout=stackLayout;horizontal=1;startSize=30;horizontalStack=0;resizeParent=1;resizeParentMax=0;resizeLast=0;collapsible=1;marginBottom=0;whiteSpace=wrap;html=1;" vertex="1" parent="WIyWlLk6GJQsqaUBKTNV-1">
          <mxGeometry x="1290" y="620" width="140" height="60" as="geometry" />
        </mxCell>
        <mxCell id="FrTbWwykCVP7QRdR1TdX-99" value="Comprobante de pago" style="text;strokeColor=none;fillColor=none;align=left;verticalAlign=middle;spacingLeft=4;spacingRight=4;overflow=hidden;points=[[0,0.5],[1,0.5]];portConstraint=eastwest;rotatable=0;whiteSpace=wrap;html=1;" vertex="1" parent="FrTbWwykCVP7QRdR1TdX-98">
          <mxGeometry y="30" width="140" height="30" as="geometry" />
        </mxCell>
        <mxCell id="FrTbWwykCVP7QRdR1TdX-104" value="" style="endArrow=none;dashed=1;html=1;dashPattern=1 3;strokeWidth=2;rounded=0;exitX=0.5;exitY=1;exitDx=0;exitDy=0;entryX=0.5;entryY=0;entryDx=0;entryDy=0;" edge="1" parent="WIyWlLk6GJQsqaUBKTNV-1" source="FrTbWwykCVP7QRdR1TdX-15" target="FrTbWwykCVP7QRdR1TdX-98">
          <mxGeometry width="50" height="50" relative="1" as="geometry">
            <mxPoint x="2250" y="270" as="sourcePoint" />
            <mxPoint x="2300" y="220" as="targetPoint" />
          </mxGeometry>
        </mxCell>
        <mxCell id="FrTbWwykCVP7QRdR1TdX-105" value="Solicitar&amp;nbsp;" style="swimlane;fontStyle=0;childLayout=stackLayout;horizontal=1;startSize=30;horizontalStack=0;resizeParent=1;resizeParentMax=0;resizeLast=0;collapsible=1;marginBottom=0;whiteSpace=wrap;html=1;" vertex="1" parent="WIyWlLk6GJQsqaUBKTNV-1">
          <mxGeometry x="1710" y="130" width="140" height="60" as="geometry" />
        </mxCell>
        <mxCell id="FrTbWwykCVP7QRdR1TdX-106" value="Imagen de la carga" style="text;strokeColor=none;fillColor=none;align=left;verticalAlign=middle;spacingLeft=4;spacingRight=4;overflow=hidden;points=[[0,0.5],[1,0.5]];portConstraint=eastwest;rotatable=0;whiteSpace=wrap;html=1;" vertex="1" parent="FrTbWwykCVP7QRdR1TdX-105">
          <mxGeometry y="30" width="140" height="30" as="geometry" />
        </mxCell>
        <mxCell id="FrTbWwykCVP7QRdR1TdX-109" value="" style="endArrow=none;dashed=1;html=1;dashPattern=1 3;strokeWidth=2;rounded=0;entryX=0.5;entryY=1;entryDx=0;entryDy=0;exitX=0.5;exitY=0;exitDx=0;exitDy=0;" edge="1" parent="WIyWlLk6GJQsqaUBKTNV-1" source="FrTbWwykCVP7QRdR1TdX-105" target="FrTbWwykCVP7QRdR1TdX-17">
          <mxGeometry width="50" height="50" relative="1" as="geometry">
            <mxPoint x="1730" y="90" as="sourcePoint" />
            <mxPoint x="1780" y="40" as="targetPoint" />
          </mxGeometry>
        </mxCell>
        <mxCell id="FrTbWwykCVP7QRdR1TdX-111" value="seleccione el tipo de problema que más se acomode" style="text;html=1;align=center;verticalAlign=middle;resizable=0;points=[];autosize=1;strokeColor=none;fillColor=none;" vertex="1" parent="WIyWlLk6GJQsqaUBKTNV-1">
          <mxGeometry x="1150" y="-330" width="300" height="30" as="geometry" />
        </mxCell>
        <mxCell id="FrTbWwykCVP7QRdR1TdX-112" value="" style="endArrow=none;html=1;rounded=0;entryX=0.5;entryY=1;entryDx=0;entryDy=0;exitX=0.518;exitY=1.051;exitDx=0;exitDy=0;exitPerimeter=0;" edge="1" parent="WIyWlLk6GJQsqaUBKTNV-1" source="FrTbWwykCVP7QRdR1TdX-111" target="FrTbWwykCVP7QRdR1TdX-11">
          <mxGeometry width="50" height="50" relative="1" as="geometry">
            <mxPoint x="2150" y="-160" as="sourcePoint" />
            <mxPoint x="2200" y="-210" as="targetPoint" />
          </mxGeometry>
        </mxCell>
        <mxCell id="FrTbWwykCVP7QRdR1TdX-113" value="Otro" style="rounded=0;whiteSpace=wrap;html=1;" vertex="1" parent="WIyWlLk6GJQsqaUBKTNV-1">
          <mxGeometry x="1720" y="-280" width="120" height="60" as="geometry" />
        </mxCell>
        <mxCell id="FrTbWwykCVP7QRdR1TdX-114" value="" style="endArrow=classic;html=1;rounded=0;exitX=0;exitY=0.5;exitDx=0;exitDy=0;entryX=0;entryY=0.5;entryDx=0;entryDy=0;" edge="1" parent="WIyWlLk6GJQsqaUBKTNV-1" source="FrTbWwykCVP7QRdR1TdX-11" target="FrTbWwykCVP7QRdR1TdX-113">
          <mxGeometry width="50" height="50" relative="1" as="geometry">
            <mxPoint x="2410" y="-250" as="sourcePoint" />
            <mxPoint x="2460" y="-300" as="targetPoint" />
          </mxGeometry>
        </mxCell>
        <mxCell id="FrTbWwykCVP7QRdR1TdX-119" value="Solicitar" style="swimlane;fontStyle=0;childLayout=stackLayout;horizontal=1;startSize=30;horizontalStack=0;resizeParent=1;resizeParentMax=0;resizeLast=0;collapsible=1;marginBottom=0;whiteSpace=wrap;html=1;" vertex="1" parent="WIyWlLk6GJQsqaUBKTNV-1">
          <mxGeometry x="1950" y="-330" width="140" height="90" as="geometry">
            <mxRectangle x="1950" y="-330" width="80" height="30" as="alternateBounds" />
          </mxGeometry>
        </mxCell>
        <mxCell id="FrTbWwykCVP7QRdR1TdX-123" value="(Opcional) Imágenes" style="text;html=1;align=left;verticalAlign=middle;resizable=0;points=[];autosize=1;strokeColor=none;fillColor=none;" vertex="1" parent="FrTbWwykCVP7QRdR1TdX-119">
          <mxGeometry y="30" width="140" height="30" as="geometry" />
        </mxCell>
        <mxCell id="FrTbWwykCVP7QRdR1TdX-120" value="breve explicación" style="text;strokeColor=none;fillColor=none;align=left;verticalAlign=middle;spacingLeft=4;spacingRight=4;overflow=hidden;points=[[0,0.5],[1,0.5]];portConstraint=eastwest;rotatable=0;whiteSpace=wrap;html=1;" vertex="1" parent="FrTbWwykCVP7QRdR1TdX-119">
          <mxGeometry y="60" width="140" height="30" as="geometry" />
        </mxCell>
        <mxCell id="FrTbWwykCVP7QRdR1TdX-121" value="" style="endArrow=none;dashed=1;html=1;dashPattern=1 3;strokeWidth=2;rounded=0;entryX=0.01;entryY=-0.027;entryDx=0;entryDy=0;entryPerimeter=0;exitX=1;exitY=0.5;exitDx=0;exitDy=0;" edge="1" parent="WIyWlLk6GJQsqaUBKTNV-1" target="FrTbWwykCVP7QRdR1TdX-120">
          <mxGeometry width="50" height="50" relative="1" as="geometry">
            <mxPoint x="1840" y="-250" as="sourcePoint" />
            <mxPoint x="1970" y="-90" as="targetPoint" />
          </mxGeometry>
        </mxCell>
        <mxCell id="FrTbWwykCVP7QRdR1TdX-124" value="Entregar" style="swimlane;fontStyle=0;childLayout=stackLayout;horizontal=1;startSize=30;horizontalStack=0;resizeParent=1;resizeParentMax=0;resizeLast=0;collapsible=1;marginBottom=0;whiteSpace=wrap;html=1;" vertex="1" parent="WIyWlLk6GJQsqaUBKTNV-1">
          <mxGeometry x="2430" y="-875" width="140" height="90" as="geometry" />
        </mxCell>
        <mxCell id="FrTbWwykCVP7QRdR1TdX-125" value="Posibles soluciones" style="text;strokeColor=none;fillColor=none;align=left;verticalAlign=middle;spacingLeft=4;spacingRight=4;overflow=hidden;points=[[0,0.5],[1,0.5]];portConstraint=eastwest;rotatable=0;whiteSpace=wrap;html=1;" vertex="1" parent="FrTbWwykCVP7QRdR1TdX-124">
          <mxGeometry y="30" width="140" height="30" as="geometry" />
        </mxCell>
        <mxCell id="FrTbWwykCVP7QRdR1TdX-126" value="Poner imágenes de la luz de cerrado" style="text;strokeColor=none;fillColor=none;align=left;verticalAlign=middle;spacingLeft=4;spacingRight=4;overflow=hidden;points=[[0,0.5],[1,0.5]];portConstraint=eastwest;rotatable=0;whiteSpace=wrap;html=1;" vertex="1" parent="FrTbWwykCVP7QRdR1TdX-124">
          <mxGeometry y="60" width="140" height="30" as="geometry" />
        </mxCell>
        <mxCell id="FrTbWwykCVP7QRdR1TdX-128" value="" style="endArrow=classic;html=1;rounded=0;entryX=0.011;entryY=0.839;entryDx=0;entryDy=0;entryPerimeter=0;exitX=1;exitY=0.5;exitDx=0;exitDy=0;" edge="1" parent="WIyWlLk6GJQsqaUBKTNV-1" source="FrTbWwykCVP7QRdR1TdX-32" target="FrTbWwykCVP7QRdR1TdX-125">
          <mxGeometry width="50" height="50" relative="1" as="geometry">
            <mxPoint x="2350" y="-720" as="sourcePoint" />
            <mxPoint x="2400" y="-770" as="targetPoint" />
          </mxGeometry>
        </mxCell>
      </root>
    </mxGraphModel>
  </diagram>
</mxfile>
